<svg height="682.66669pt" viewBox="-21 -21 682.66669 682.66669" width="682.66669pt" xmlns="http://www.w3.org/2000/svg"><path d="m345 509.019531h-18.75v-18.75h18.75zm-31.25 0h-18.75v-18.75h18.75zm0 0"/><path d="m640 373.367188v-106.734376l-89.15625-14.753906c-4.792969-16.269531-11.320312-32.011718-19.457031-46.925781l52.628906-73.488281-28.902344-28.902344-13.257812 13.261719 17.652343 17.652343-50.359374 70.320313 3.03125 5.242187c9.726562 16.804688 17.191406 34.824219 22.195312 53.539063l1.558594 5.839844 85.316406 14.117187v74.929688l-85.316406 14.113281-1.558594 5.84375c-5 18.714844-12.46875 36.726563-22.195312 53.539063l-3.035157 5.234374 50.363281 70.328126-52.984374 52.984374-70.320313-50.363281-5.242187 3.035157c-16.804688 9.726562-34.824219 17.191406-53.539063 22.191406l-5.839844 1.5625-14.117187 85.316406h-74.929688l-14.117187-85.316406-5.839844-1.558594c-18.71875-5-36.734375-12.46875-53.539063-22.195312l-5.242187-3.035157-70.320313 50.363281-52.984374-52.984374 50.363281-70.320313-3.035157-5.242187c-9.726562-16.804688-17.191406-34.824219-22.195312-53.539063l-1.558594-5.839844-85.316406-14.117187v-74.929688l85.316406-14.113281 1.558594-5.84375c5-18.714844 12.46875-36.726563 22.195312-53.539063l3.03125-5.234374-50.359374-70.328126 52.984374-52.984374 70.320313 50.363281 5.234375-3.035157c16.8125-9.726562 34.828125-17.191406 53.546875-22.191406l5.839844-1.5625 14.117187-85.316406h74.929688l14.117187 85.316406 5.839844 1.558594c18.714844 5 36.734375 12.46875 53.539063 22.195312l5.242187 3.035157 70.320313-50.363281 17.65625 17.652343 13.257812-13.257812-28.902344-28.902344-73.488281 52.628906c-14.914063-8.136719-30.65625-14.664062-46.925781-19.457031l-14.753906-89.15625h-106.734376l-14.75 89.15625c-16.273437 4.792969-32.015624 11.320312-46.929687 19.457031l-73.488281-52.628906-75.480469 75.480469 52.628906 73.488281c-8.136719 14.914063-14.664062 30.65625-19.457031 46.925781l-89.15625 14.753906v106.734376l89.15625 14.753906c4.792969 16.269531 11.320312 32.011718 19.457031 46.925781l-52.628906 73.488281 75.480469 75.480469 73.488281-52.628906c14.914063 8.136719 30.65625 14.664062 46.925781 19.457031l14.753906 89.15625h106.734376l14.75-89.15625c16.273437-4.792969 32.007812-11.320312 46.929687-19.457031l73.488281 52.628906 75.472656-75.480469-52.621093-73.488281c8.136719-14.914063 14.664062-30.65625 19.457031-46.925781zm0 0"/><path d="m175.507812 335.070312c7.59375 73.617188 69.824219 130.199219 144.492188 130.199219 80.101562 0 145.269531-65.171875 145.269531-145.269531s-65.167969-145.269531-145.269531-145.269531c-75.589844 0-138.8125 58.121093-144.804688 133.632812l18.691407 1.484375c5.175781-65.253906 60.570312-116.367187 126.113281-116.367187 69.761719 0 126.519531 56.757812 126.519531 126.519531s-56.757812 126.519531-126.519531 126.519531c-65.074219 0-119.175781-48.742187-125.839844-113.375zm0 0"/><path d="m369.003906 253.417969 11.070313-15.136719c-19.214844-14.046875-42.957031-20.824219-66.855469-19.097656-51.832031 3.753906-93.492188 46.714844-93.492188 100.582031 0 56.210937 45.464844 100.84375 100.851563 100.839844 25.828125 0 51.667969-9.832031 71.335937-29.503907 36.097657-36.097656 39.527344-93.566406 7.96875-133.671874l-14.734374 11.597656c25.691406 32.648437 22.898437 79.429687-6.492188 108.820312-32.023438 32.027344-84.140625 32.019532-116.164062 0-15.484376-15.488281-24.015626-36.113281-24.015626-58.082031s8.53125-42.597656 24.015626-58.082031c28.363281-28.367188 74.152343-31.917969 106.511718-8.265625zm0 0"/></svg>